name C:\Users\antoi\Documents\MyRepositories\upper-imu-dc\Results\main_tracking\Case_76\kinematics.mot
datacolumns 10
datarows 37
range 2.00000000 2.36000000
endheader 
time	clav_prot	clav_elev	scapula_abduction	scapula_elevation	scapula_upward_rot	scapula_winging	plane_elv	shoulder_elv	axial_rot	
          2.00000000	        -24.85180552	          4.01568033	          9.93880299	         -4.69083704	         52.07982591	         -4.94996350	         61.36514193	         71.12885028	        -20.81379803	
          2.01000000	        -25.02893959	          4.10935737	          9.92850718	         -4.65964723	         52.47255939	         -5.02006007	         61.15681014	         71.44157090	        -20.65346249	
          2.02000000	        -25.20493234	          4.19677304	          9.91648467	         -4.63157931	         52.85855622	         -5.08750385	         60.94570607	         71.75330218	        -20.48312021	
          2.03000000	        -25.37959100	          4.27803469	          9.90319401	         -4.60659355	         53.23801919	         -5.15237528	         60.73237714	         72.06396150	        -20.30389782	
          2.04000000	        -25.55276522	          4.35332222	          9.88907429	         -4.58460450	         53.61123728	         -5.21477565	         60.51732125	         72.37344045	        -20.11710848	
          2.05000000	        -25.72434768	          4.42288375	          9.87453698	         -4.56548275	         53.97857587	         -5.27482525	         60.30098082	         72.68160562	        -19.92420481	
          2.06000000	        -25.89427288	          4.48702783	          9.85995905	         -4.54905919	         54.34046350	         -5.33266054	         60.08373925	         72.98830374	        -19.72672152	
          2.07000000	        -26.06251472	          4.54611339	          9.84567563	         -4.53513060	         54.69737497	         -5.38843052	         59.86592147	         73.29337095	        -19.52620788	
          2.08000000	        -26.22908381	          4.60053927	          9.83197104	         -4.52346564	         55.04981190	         -5.44229318	         59.64779844	         73.59664512	        -19.32415227	
          2.09000000	        -26.39402523	          4.65073481	          9.81906833	         -4.51381037	         55.39828274	         -5.49441249	         59.42959444	         73.89797880	        -19.12190402	
          2.10000000	        -26.55741680	          4.69715248	          9.80711795	         -4.50589262	         55.74328360	         -5.54495624	         59.21149498	         74.19725137	        -18.92059960	
          2.11000000	        -26.71936782	          4.74026332	          9.79618747	         -4.49942468	         56.08528188	         -5.59409520	         58.99365349	         74.49437854	        -18.72110213	
          2.12000000	        -26.88001763	          4.78055535	          9.78625513	         -4.49410432	         56.42470543	         -5.64200351	         58.77619482	         74.78931663	        -18.52396299	
          2.13000000	        -27.03953347	          4.81853472	          9.77720941	         -4.48961422	         56.76193762	         -5.68886010	         58.55921464	         75.08206135	        -18.32941252	
          2.14000000	        -27.19810637	          4.85472760	          9.76885534	         -4.48562085	         57.09731691	         -5.73485017	         58.34277498	         75.37264273	        -18.13738257	
          2.15000000	        -27.35594497	          4.88967996	          9.76092712	         -4.48177474	         57.43113867	         -5.78016584	         58.12689676	         75.66111823	        -17.94755673	
          2.16000000	        -27.51326736	          4.92395261	          9.75310552	         -4.47771401	         57.76365732	         -5.82500480	         57.91155080	         75.94756586	        -17.75943801	
          2.17000000	        -27.67029230	          4.95811066	          9.74503741	         -4.47307154	         58.09508791	         -5.86956694	         57.69664991	         76.23207795	        -17.57242041	
          2.18000000	        -27.82723093	          4.99270906	          9.73635467	         -4.46748491	         58.42560722	         -5.91404958	         57.48204482	         76.51475544	        -17.38585434	
          2.19000000	        -27.98428015	          5.02827738	          9.72669055	         -4.46060698	         58.75535491	         -5.95864239	         57.26752624	         76.79570207	        -17.19910121	
          2.20000000	        -28.14161820	          5.06530639	          9.71569208	         -4.45211523	         59.08443546	         -6.00352288	         57.05283374	         77.07501811	        -17.01157770	
          2.21000000	        -28.29940227	          5.10423847	          9.70302842	         -4.44171863	         59.41292040	         -6.04885310	         56.83767099	         77.35279392	        -16.82279126	
          2.22000000	        -28.45776771	          5.14546189	          9.68839474	         -4.42916181	         59.74085010	         -6.09477762	         56.62172568	         77.62910419	        -16.63236784	
          2.23000000	        -28.61682906	          5.18930812	          9.67151095	         -4.41422727	         60.06823377	         -6.14142252	         56.40469231	         77.90400438	        -16.44006972	
          2.24000000	        -28.77668281	          5.23605007	          9.65211487	         -4.39673693	         60.39504693	         -6.18889505	         56.18629582	         78.17752968	        -16.24580024	
          2.25000000	        -28.93741193	          5.28590022	          9.62995036	         -4.37655397	         60.72122674	         -6.23728369	         55.96631340	         78.44969613	        -16.04959406	
          2.26000000	        -29.09909153	          5.33900779	          9.60475301	         -4.35358544	         61.04666598	         -6.28665841	         55.74459208	         78.72050227	        -15.85159482	
          2.27000000	        -29.26179427	          5.39545519	          9.57623648	         -4.32778539	         61.37120766	         -6.33707109	         55.52105995	         78.98992967	        -15.65202509	
          2.28000000	        -29.42559452	          5.45525452	          9.54408342	         -4.29915802	         61.69464193	         -6.38855602	         55.29573021	         79.25794035	        -15.45115478	
          2.29000000	        -29.59057012	          5.51834511	          9.50794363	         -4.26775991	         62.01670703	         -6.44113055	         55.06869828	         79.52447100	        -15.24927417	
          2.30000000	        -29.75680128	          5.58459303	          9.46744086	         -4.23370068	         62.33709486	         -6.49479580	         54.84013307	         79.78942484	        -15.04667675	
          2.31000000	        -29.92436660	          5.65379347	          9.42218819	         -4.19714140	         62.65546148	         -6.54953759	         54.61026387	         80.05266313	        -14.84365473	
          2.32000000	        -30.09333688	          5.72567627	          9.37181020	         -4.15829047	         62.97144182	         -6.60532738	         54.37936479	         80.31399815	        -14.64050750	
          2.33000000	        -30.26376781	          5.79991479	          9.31596898	         -4.11739691	         63.28466741	         -6.66212354	         54.14773846	         80.57318963	        -14.43756090	
          2.34000000	        -30.43569308	          5.87613742	          9.25438959	         -4.07474165	         63.59478523	         -6.71987279	         53.91570108	         80.82994587	        -14.23519183	
          2.35000000	        -30.60911949	          5.95394114	          9.18688063	         -4.03062729	         63.90147537	         -6.77851211	         53.68357043	         81.08393027	        -14.03385084	
          2.36000000	        -30.78402522	          6.03290579	          9.11334649	         -3.98536749	         64.20446570	         -6.83797109	         53.45165727	         81.33477264	        -13.83407558	
